{"title":"Little.Miss.Sunshine.2006.DVDrip.Mp4.[R3]","uid":8757843,"size":265410680,"categoryP":"video","categoryS":"movies_dvdr","magnet":"?xt=urn:btih:1c62382eddb8f37a70b531b40973b1a805e46865&amp;dn=Little.Miss.Sunshine.2006.DVDrip.Mp4.%5BR3%5D&amp;tr=udp%3A%2F%2Ftracker.openbittorrent.com%3A80&amp;tr=udp%3A%2F%2Fopen.demonii.com%3A1337&amp;tr=udp%3A%2F%2Ftracker.coppersurfer.tk%3A6969&amp;tr=udp%3A%2F%2Fexodus.desync.com%3A6969","seeders":3,"leechers":0,"uploader":"rohnakzz","files":3,"time":1375182068,"description":"General\nComplete name                            : Little.Miss.Sunshine.2006.DVDrip.Mp4.[R3].mp4\nFormat                                   : MPEG-4\nFormat profile                           : Base Media / Version 2\nCodec ID                                 : mp42\nFile size                                : 253 MiB\nDuration                                 : 1h 42mn\nOverall bit rate mode                    : Variable\nOverall bit rate                         : 345 Kbps\nEncoded date                             : UTC 2013-07-29 12:35:21\nTagged date                              : UTC 2013-07-29 12:35:21\n\nVideo\nID                                       : 2\nFormat                                   : AVC\nFormat/Info                              : Advanced Video Codec\nFormat profile                           : &lt;a class=&quot;__cf_email__&quot; href=&quot;/cdn-cgi/l/email-protection&quot; data-cfemail=&quot;f0b8999798b0bcc2dec1&quot;&gt;[email&amp;#160;protected]&lt;/a&gt;&lt;script cf-hash='f9e31' type=&quot;text/javascript&quot;&gt;\n/* &lt;![CDATA[ */!function(){try{var t=&quot;currentScript&quot;in document?document.currentScript:function(){for(var t=document.getElementsByTagName(&quot;script&quot;),e=t.length;e--;)if(t[e].getAttribute(&quot;cf-hash&quot;))return t[e]}();if(t&amp;&amp;t.previousSibling){var e,r,n,i,c=t.previousSibling,a=c.getAttribute(&quot;data-cfemail&quot;);if(a){for(e=&quot;&quot;,r=parseInt(a.substr(0,2),16),n=2;a.length-n;n+=2)i=parseInt(a.substr(n,2),16)^r,e+=String.fromCharCode(i);e=document.createTextNode(e),c.parentNode.replaceChild(e,c)}}}catch(u){}}();/* ]]&gt; */&lt;/script&gt;\nFormat settings, CABAC                   : Yes\nFormat settings, ReFrames                : 6 frames\nCodec ID                                 : avc1\nCodec ID/Info                            : Advanced Video Coding\nDuration                                 : 1h 42mn\nSource duration                          : 1h 42mn\nBit rate mode                            : Constant\nBit rate                                 : 300 Kbps\nWidth                                    : 512 pixels\nHeight                                   : 212 pixels\nDisplay aspect ratio                     : 2.40:1\nFrame rate mode                          : Variable\nFrame rate                               : 23.976 fps\nMinimum frame rate                       : 11.988 fps\nMaximum frame rate                       : 23.976 fps\nStandard                                 : NTSC\nColor space                              : YUV\nChroma subsampling                       : 4:2:0\nBit depth                                : 8 bits\nScan type                                : Progressive\nBits/(Pixel*Frame)                       : 0.115\nStream size                              : 217 MiB (86%)\nSource stream size                       : 217 MiB (86%)\nLanguage                                 : English\nEncoded date                             : UTC 2013-07-29 12:35:22\nTagged date                              : UTC 2013-07-29 12:35:22\nmdhd_Duration                            : 6154071\nColor primaries                          : BT.601 NTSC\nTransfer characteristics                 : BT.601\nMatrix coefficients                      : BT.601\n\nAudio\nID                                       : 1\nFormat                                   : AAC\nFormat/Info                              : Advanced Audio Codec\nFormat profile                           : LC\nCodec ID                                 : 40\nDuration                                 : 1h 42mn\nBit rate mode                            : Variable\nBit rate                                 : 45.6 Kbps\nMaximum bit rate                         : 194 Kbps\nChannel(s)                               : 2 channels\nChannel positions                        : Front: L R\nSampling rate                            : 44.1 KHz\nCompression mode                         : Lossy\nStream size                              : 33.5 MiB (13%)\nLanguage                                 : English\n\nScreenshots\n\n[IMG]http://i.imgur.com/8AKCXwd.png[/IMG]\n\n[IMG]http://i.imgur.com/I2p7Ohe.png[/IMG]\n\n[IMG]http://i.imgur.com/IB1HfvU.png[/IMG]\n\n[IMG]http://i.imgur.com/dp3hsXJ.png[/IMG]\n\n[IMG]http://i.imgur.com/hW4DSwd.png[/IMG]\n\n[IMG]http://i.imgur.com/1ufQHvY.png[/IMG]","torrent":{"xt":"urn:btih:1c62382eddb8f37a70b531b40973b1a805e46865","amp;dn":"Little.Miss.Sunshine.2006.DVDrip.Mp4.%5BR3%5D","amp;tr":["udp%3A%2F%2Ftracker.openbittorrent.com%3A80","udp%3A%2F%2Fopen.demonii.com%3A1337","udp%3A%2F%2Ftracker.coppersurfer.tk%3A6969","udp%3A%2F%2Fexodus.desync.com%3A6969"],"infoHash":"1c62382eddb8f37a70b531b40973b1a805e46865","infoHashBuffer":{"type":"Buffer","data":[28,98,56,46,221,184,243,122,112,181,49,180,9,115,177,168,5,228,104,101]},"announce":[],"urlList":[]}}